<svg id="グループ_5246" data-name="グループ 5246" xmlns="http://www.w3.org/2000/svg" xmlns:xlink="http://www.w3.org/1999/xlink" width="1015" height="385" viewBox="0 0 1015 385">
  <defs>
    <clipPath id="clip-path">
      <rect id="長方形_95" data-name="長方形 95" width="1015" height="385" fill="#fff" stroke="#fff" stroke-width="0.5"/>
    </clipPath>
  </defs>
  <g id="グループ_3148" data-name="グループ 3148" clip-path="url(#clip-path)">
    <path id="パス_9572" data-name="パス 9572" d="M50.425,115.313c-6.631,3.622-12.162,6.675-17.732,9.66-1.482.8-3.076,1.883-4.63,1.9-1.5.02-3.608-.79-4.34-1.94-.588-.923.059-3.195.879-4.364,4.758-6.784,11.521-11.323,18.571-15.306,5.1-2.88,7.519-6.346,7.748-12.585.5-13.672,2.107-27.3,3.232-40.954a18.133,18.133,0,0,0-.381-2.953C35.905,55.91,18.342,62.7,5.324,80.122l19.888-.753c.134.432.269.863.4,1.293-.942.692-1.825,1.87-2.836,1.995-5.57.68-11.165,1.368-16.763,1.493-2.68.059-5.735-1.268-6.006-4.375-.152-1.746,1.306-3.884,2.536-5.457C10.216,64.512,21.085,59.277,32,54.2q9.3-4.322,18.817-8.168c2.957-1.2,4.088-3.435,4.282-6.249.4-5.888.929-12.008-2.023-17.306-3.177-5.7-.663-10.658-.176-16.108,5.606.081,6.491,3.631,6.737,7,.621,8.562.828,17.156,1.2,25.737.02.469.035.938.09,2.385,5.315-.877,10.537-1.456,15.618-2.638,10.22-2.376,20.438-2.147,30.647-.394,8.8,1.511,12.248,9.991,7.113,17.211-3.785,5.322-7.671,10.583-11.742,15.687-1.665,2.088-3.936,3.691-6.1,5.67,8.179-.452,15.694-1.55,23.107-1.061,5.738.379,11.541,2.239,16.964,4.343C143.947,83.187,146,89.4,141.851,96.1a41.4,41.4,0,0,1-8.256,8.945c-12.611,10.98-27.42,18.442-42.237,25.857-1.081.54-2.44,1.361-3.417,1.1-1.907-.507-4.656-1.277-5.222-2.676-1.1-2.731,1.781-3.827,3.827-4.221,10.867-2.09,19.683-8.5,29.02-13.714a121.667,121.667,0,0,0,16.22-11.286c3.789-3.013,8.5-6.6,7.693-11.79-.806-5.206-6.818-5.935-11.072-7.271a37.113,37.113,0,0,0-12.974-1.619c-12.27.705-23.978,2.2-33.52,12.105-6.453,6.7-15.18,11.228-23,16.571-2.772,1.894-4.117,4.34-3.49,7.478,1.29,6.454,2.809,12.866,4.4,19.253.559,2.244,1.455,4.439-1.392,5.6-2.618,1.072-5.2-.685-5.685-3.939-.608-4.1-.944-8.247-1.392-12.375-.284-2.629-.559-5.258-.934-8.81m4.623-17.738C66.919,91.3,77.787,86.682,87.362,80.166c8.884-6.047,15.682-14.78,21.319-24.069,6.015-9.912,4.254-13.232-7.4-14.721-14.047-1.793-27.525.817-41.057,4.953-1.695,16.782-3.353,33.2-5.174,51.246m2.455,7.042,7.49-6.386-1-1.1c-2.677,1.98-6.933,2.085-6.493,7.485m-6.638,3.926q-.541-.943-1.083-1.887c-3.241.674-5.892,2.187-6.548,6.65l7.631-4.763" transform="translate(0 5.3)" fill="#fff" stroke="#fff" stroke-width="0.5"/>
    <path id="パス_9573" data-name="パス 9573" d="M495.3,56.08l-30.31,1.145c-.465,4.334-.815,7.907-1.239,11.468-.748,6.293-1.466,12.589-2.334,18.863-.638,4.593-3.239,7.923-7.856,8.533-4.745.627-8.472-1.8-11.068-5.807a4.207,4.207,0,0,1-.564-3.382c1.713.887,3.422,1.779,5.139,2.656,4.027,2.055,6.471,1.489,8.379-2.524a25.682,25.682,0,0,0,2.166-7.755c.808-6.512,1.286-13.067,1.951-20.16-8.718.33-17,.711-25.281.936-8.545.233-14.87,3.294-21.162,9.936-8.884,9.376-20.607,15.687-33.49,18.9a24.152,24.152,0,0,1-15.717-1.759c-5.885-2.609-8.422-11.438-5.214-18.718,1.737-3.944,4.815-7.3,7.288-10.918.8-1.165,2.424-2.469,2.255-3.471-1.019-6.038,3.062-5.556,7-6.714a79,79,0,0,1,23.851-3.695c7.752.139,15.163.938,19.339,9.086.656,1.281,3.234,2.262,4.9,2.228,12.026-.253,24.046-.8,36.417-1.27.793-9.476,1.131-17.975,2.343-26.347a54.469,54.469,0,0,1,4.482-15.39c2.756-5.805,7.746-6.7,13.652-3.823,12,5.855,19.584,16,26.294,26.975.4.652.013,1.786-.014,2.948-4.337-.616-5.931-3.618-7.631-6.591-4.5-7.857-10.575-14.025-19.009-17.7-4.267-1.861-6.27-1.575-8.639,2.281a20.419,20.419,0,0,0-3.067,7.414c-1.308,9.15-2.2,18.363-3.254,27.609,10.368,2.927,21.231-4.012,30.553,2.479q-.077,1.286-.158,2.572m-81.466-2.493c-6.244-6.108-14.679-6.774-22.107-1.07-4.586-2.843-8.828-1.462-12.668,1.7-3.892,3.206-7.963,6.313-11.266,10.068a20.036,20.036,0,0,0-4.359,9c-1.548,7.883,2.523,12.188,10.443,11.772a17.352,17.352,0,0,0,3.624-.586,78.748,78.748,0,0,0,33.362-19.021c1.057-.986,1.458-2.828,1.827-4.356.495-2.059.66-4.2,1.143-7.513" transform="translate(297.337 5.416)" fill="#fff" stroke="#fff" stroke-width="0.5"/>
    <path id="パス_9574" data-name="パス 9574" d="M277.819,68.837c-4.635,5.038-8.789,9.363-12.633,13.948-.524.625.495,2.541,1.042,4.9,2.693-1.55,4.885-2.493,6.7-3.92,3.65-2.874,7.012-6.111,10.643-9.009,2.99-2.387,3.981-5.415,3.8-9.062a11.683,11.683,0,0,1,.2-4.362,4.152,4.152,0,0,1,2.607-2.1,2.685,2.685,0,0,1,2.312,1.317,18.386,18.386,0,0,1,.911,6.283c-.451,5.443,1.816,9.808,4.293,14.448,3.109-4.408,5.3-8.832,8.686-11.951a46.043,46.043,0,0,1,12.4-7.588c4.3-1.924,9.04-2.86,14.947-4.638A91.7,91.7,0,0,0,343.007,32.7c2.2-9.775,4.868-19.446,7.19-29.2.749-3.145,2.752-3.94,5.431-3.3,2.552.6,3.056,3.543,1.9,6.448-2.428,6.091-4.875,12.2-6.757,18.473-2.73,9.092-5.007,18.321-7.376,27.517a25.7,25.7,0,0,0-.495,5.093c-.346,7.018-.33,7.018,3.17,12-5.643,6.886-4.7,18.832,2.014,25.716,1.3,1.33,2.578,2.68,4.014,4.179-5.376,2.55-7.572,1.826-9.656-3.49a57.175,57.175,0,0,1-4.271-23.71c.121-2.609,1.583-6-2.807-7.8-3.637,4.994-7.222,10.107-11.021,15.055a55.68,55.68,0,0,1-6.825,7.623c-5.564,4.992-9.135,4.723-15.35.178-4.481-3.279-10.148-5.131-12.058-11.373-5.493,4.435-10.693,8.643-15.907,12.834a13.967,13.967,0,0,1-2.4,1.685c-3.311,1.662-8.062,1.158-10.312-1.013-2.715-2.618-3.635-8.046-1.222-11.468a48.1,48.1,0,0,1,8.769-9.749c2.534-2.048,5.951-1.618,8.785.436M329.98,63.1c-10.17,2.017-17.574,5.93-22.886,13.4-1.876,2.636-2.583,5.721-.178,8.075,2.686,2.625,5.608.839,7.789-1.251,5.819-5.58,11.394-11.394,15.275-20.222" transform="translate(215.428 0)" fill="#fff" stroke="#fff" stroke-width="0.5"/>
    <path id="パス_9575" data-name="パス 9575" d="M236.757,114.952c-2.961,4.952-5.786,5.4-9.531,4.287-3.853-8.8-1.446-18.275-2.484-27.349-.432-.233-.854-.665-1.169-.6-7.494,1.6-9.436-.07-8.58-7.533,1.16-10.125,4.758-19.44,9.278-28.5,2.56-5.126,4.679-10.469,7.629-17.143-28.122,5.716-52.36,16.364-77.118,30.045q3.062,1.135,6.121,2.268l-1.022,2.154c-4.72.178-9.454.614-14.154.376-1.38-.07-2.662-2.054-4.613-3.68,4.571-2.6,8-4.877,11.686-6.606,21.019-9.87,42.424-18.867,64.766-25.258,9.832-2.812,19.832-5.8,30.332-5.04a33.441,33.441,0,0,1,7.228,1.079,13.079,13.079,0,0,1,8.527,17.44c-3.225,8.064-8.481,14.928-14.537,20.979A94.833,94.833,0,0,1,234.25,83.7c-4.4,2.905-5.026,7.051-5.119,11.418a89.649,89.649,0,0,0,.94,12.466c.414,3.49-.495,8.046,6.686,7.364m-5.6-35.127c6.8-3.158,17.213-12.3,22.237-19.056,3.215-4.325,6.054-8.8,7.089-14.258.508-2.671.134-4.7-2.081-6.479-5.746-4.626-12.351-3.913-18.9-3.043-1,.132-2.217,1.916-2.567,3.153a154.266,154.266,0,0,0-5.779,39.683m-11.22,6.086c4.315.647,6.059-1.323,6.392-4.7.628-6.348,1.07-12.712,1.59-19.068-4.425,7.489-8.4,14.917-7.983,23.764" transform="translate(117.432 26.836)" fill="#fff" stroke="#fff" stroke-width="0.5"/>
    <path id="パス_9576" data-name="パス 9576" d="M421.321,141.089c.566,3.779,1.682,6.659,1.262,9.3-1.215,7.667,2.886,13.281,6.821,18.814,2.941,4.136,6.752,4.607,10.815,1.321,7.611-6.155,14.934-12.712,16.033-23.452.113-1.114,1-2.149,1.852-3.882l8.683,3.845c-5.553,7.711-10.409,14.632-15.482,21.391a45.108,45.108,0,0,1-6.1,6.333c-6.088,5.443-13.43,4.937-18.653-1.469a65.994,65.994,0,0,1-5.447-8.705c-1.207-2.079-2.217-4.272-3.813-7.381-4.91,4.439-9.165,8.758-13.9,12.462q-12.37,9.681-25.277,18.664c-2.094,1.464-4.978,2.1-7.593,2.466-8.276,1.174-14.408-3.156-16.163-11.356-1.642-7.657-.359-15.1,2.376-22.311,1.907-5.029,3.985-9.993,6.074-15.2,6.709-1.405,11.742,2.64,14.275,12.279a33.948,33.948,0,0,1-5.559-2.261,33.772,33.772,0,0,1-4.425-4,45.778,45.778,0,0,0-8.3,28.492c.269,8.573,6.929,11.655,13.056,8.839,5.513-2.533,11.211-5.137,15.916-8.859,8.606-6.811,16.6-14.4,24.709-21.822,2.133-1.953,4.062-4.243,3.419-7.7-.592-3.18,1.867-4.105,5.425-5.807" transform="translate(294.282 117.374)" fill="#fff" stroke="#fff" stroke-width="0.5"/>
    <path id="パス_9577" data-name="パス 9577" d="M489.885,169.051c-2.593,6.815-5.343,13.578-7.66,20.486-.526,1.563.048,3.823.826,5.413,1.129,2.306.59,4.322-1.374,4.779-1.266.295-3.87-1.281-4.39-2.6a9.851,9.851,0,0,1,.088-6.359c2.653-7.584,5.6-15.069,8.558-22.544,5.475-13.847,11.03-27.662,16.724-41.92,3.358.866,7.189.852,8.179,6.025-8.747,2.1-9.329,10.059-12.856,18.061,6.4-3.178,11.42-5.981,16.682-8.216,9.69-4.118,19.547-7.841,29.28-11.862a8.849,8.849,0,0,1,8.406.625c1.184.729,1.722,2.5,3.137,4.717-14.267-1.116-25.445,4.616-36.882,9.878-6.019,2.768-11.823,5.58-16.984,9.812-7.609,6.239-7.562,13.52.462,19.68,7.649,5.875,16.151,10.141,25.063,13.781,2.723,1.112,5.013,3.539,7.127,5.727.608.628-.088,2.519-.187,3.832-1.123-.145-2.44.044-3.338-.484-8.393-4.928-16.552-10.281-25.114-14.892-6.041-3.255-10.312-7.982-13.84-13.679l-1.905-.26" transform="translate(396.785 105.075)" fill="#fff" stroke="#fff" stroke-width="0.5"/>
    <path id="パス_9578" data-name="パス 9578" d="M265.949,196.785c-2.431-.225-4.927-.458-8.28-.768,4.571-12.441,8.734-23.767,13.269-36.105l7.221,4.6c-1.806,2.708-3.228,4.836-4.648,6.963l.5.758c1.854-1.242,3.767-2.4,5.55-3.735,20.48-15.3,42.479-27.121,68.591-28.88a193.894,193.894,0,0,1,24.932.1c5.172.319,5.856,2.118,4.767,8.506-10.784-6.159-22.23-3.609-33.52-2.7-4.121.332-8.166,1.5-12.281,1.982-14.139,1.662-25.154,10.184-37.162,16.582a65.834,65.834,0,0,0-25.127,23.758c-1.512,2.414-2.287,5.289-3.813,8.94" transform="translate(214.428 115.851)" fill="#fff" stroke="#fff" stroke-width="0.5"/>
    <path id="パス_9579" data-name="パス 9579" d="M218.125,184.1c4.874-6.981,9.568-14.1,14.672-20.9,5.271-7.031,10.966-13.741,16.418-20.635,1.535-1.942,2.844-4.325,5.843-3.406,3.258,1,3.311,3.823,3.391,6.78-9.518,3.787-14.993,11.874-20.768,19.548-10.42,13.844-20.321,28.087-31.03,41.7-11.457,14.566-23.6,28.589-35.433,42.861-1.094,1.317-2.083,2.72-3.329,4.354l2.624,2.627c-3.155,3.547-6.156,7.3-9.566,10.634-2.66,2.6-2.886,2.374-8.056-1.244,3.882-5.551,7.418-11.413,11.739-16.623,9.52-11.484,19.533-22.56,29.163-33.956,7.415-8.775,14.6-17.753,21.774-26.726a31.11,31.11,0,0,0,2.75-5.148Z" transform="translate(127.234 115.597)" fill="#fff" stroke="#fff" stroke-width="0.5"/>
    <path id="パス_9580" data-name="パス 9580" d="M216.935,80.343c1.469-14.062.6-27.664,5.088-42.03,2.99,2.149,5.187,3.732,6.561,4.719-1.812,4.016-3.278,7.262-4.745,10.506q.662.528,1.323,1.052c6.959-10.321,18.362-12.234,28.784-16.02,2.926-1.064,5.742-2.451,8.7-3.382,5.3-1.662,10.044-.469,14.328,3.1,4.2,3.5,4.679,7.991,3.175,12.646-2.517,7.795-9.242,11.849-15.705,15.749-3.056,1.845-7.844-.694-8.688-4.452a27.907,27.907,0,0,1-.189-10.061c.464-3.081,1.962-6.007,3.008-9-11.074-1.482-29.7,8.456-32.706,23.225-.586,2.88-1.349,5.723-2.015,8.586-.66,2.825-2.083,4.833-6.922,5.362m52.974-33.418c-6.519.119-9.489,3.449-9.657,9.815-.1,3.838,2.757,5.943,5.553,3.6a46.979,46.979,0,0,0,9.062-10.33c1.1-1.695.814-4.79.2-6.981-.933-3.352-3.355-3.642-6.228-1.757.359,1.9.66,3.49,1.068,5.653" transform="translate(180.53 28.66)" fill="#fff" stroke="#fff" stroke-width="0.5"/>
    <path id="パス_9581" data-name="パス 9581" d="M220.3,188.788a11.746,11.746,0,0,1-11.854-13.915c1.193-6.527,4.853-11.622,9.157-16.344,1.449-1.592,3.311-2.8,4.875-4.294,2.8-2.682,5.625-4.3,9.811-2.693,2.609,1,5.685.705,8.5,1.271,11,2.217,14.19,11.09,6.393,19.228-6.726,7.02-14.527,12.919-24.033,16-1.147.37-2.334.616-2.845.749m14.08-27.178c-2.864-.064-6.471-2.777-8.1,2.374l4.489,4.99c-5.332,2.739-7.406-1.973-10.374-3.239-4.659,2.5-5.412,7.038-6.028,11.307-.753,5.208,3.477,8.125,8.494,6.1,8.314-3.358,15.449-8.222,20.956-15.549,1.858-2.473,2.453-4.543,1.576-8.068-2.8-.854-5.944-1.817-9.122-2.79-.8,2.055-1.308,3.369-1.893,4.875" transform="translate(173.301 125.539)" fill="#fff" stroke="#fff" stroke-width="0.5"/>
    <path id="パス_9582" data-name="パス 9582" d="M444.8,139.689c9.113-.132,17.483,6.166,19.35,13.677,1.136,4.571-.956,8.245-4.1,11.149a53.035,53.035,0,0,1-19.87,11.675,15.317,15.317,0,0,1-12.693-1.7c-1.526-.9-3.278-2.808-3.422-4.4-.484-5.355-.431-10.905,3.492-15.221,2.442-2.689,5.473-4.836,8.142-7.329,1.711-1.6,3.122-3.534,4.9-5.052a32.161,32.161,0,0,1,4.2-2.8m-7.979,31.48c7.378-1.464,14.566-5.69,20.449-12.212a6,6,0,0,0,1.061-1.9c1.9-5.032-1.433-9.434-6.755-8.571-2.611.423-5.048,2.345-7.622,2.484-7.8.423-11.59,5.651-14.421,11.695-2.789,5.959-.6,8.747,7.288,8.506" transform="translate(352.726 116.207)" fill="#fff" stroke="#fff" stroke-width="0.5"/>
    <path id="パス_9583" data-name="パス 9583" d="M99.172,44.075c7.1,2.7,9.76-7.1,16.821-4.8,3.263,4.572,7.937,9.315,3.177,15.39-4.588,5.853-9.548,11.9-18.529,10.015-4.958,10-3.263,14.681,6,16.559.511,2.556-.79,3.526-3.144,3.754-5.55.537-11.376-4.556-11.508-10.931a49.179,49.179,0,0,1,1.8-12.228c.672-2.808,2.362-5.357,3.239-8.136.863-2.737,1.275-5.615,2.142-9.623m16.046,2.354c-6.339,1.535-8.893,6.674-12.3,12.891,7.637-1.988,11.4-5.985,12.3-12.891" transform="translate(76.551 32.38)" fill="#fff" stroke="#fff" stroke-width="0.5"/>
    <path id="パス_9584" data-name="パス 9584" d="M255.882,161.143c.491-2.11.834-4.268,1.515-6.315.771-2.314,2.448-3.776,5.026-3.133,2.534.634,3.932,2.772,2.873,5.012-2.624,5.551-.751,10.882-.066,16.493l4.962,2.1c-.918,1.515-1.343,3.222-2.353,3.708-3.672,1.759-6.072-.465-9.907-9.176-2.358,2.3-4.478,4.5-6.752,6.542-3.943,3.539-7.175,3.7-10.245.691-3.569-3.5-4.034-7.824-.964-11.613s6.361-7.357,9.778-11.275c4.311.262,6.015,3.043,6.31,7.143-6.627.6-9.9,3.928-10.165,11.4,4.053-3.946,8.833-6.038,9.987-11.578" transform="translate(198.005 126.071)" fill="#fff" stroke="#fff" stroke-width="0.5"/>
    <path id="パス_9585" data-name="パス 9585" d="M452.83,173.436c-.385-1.916-1.631-4.2-1-5.684a164.537,164.537,0,0,1,7.88-15.562c1.953-3.51,4.769-6.056,9.066-6.632,5.068-.68,10.084-1.793,15.163-2.314,1.861-.191,3.84.777,5.764,1.216l-.044,1.5a10.329,10.329,0,0,1-3,1.244c-14.077.978-22.166,9.748-28.214,21.338a43.369,43.369,0,0,1-3.862,5.327l-1.759-.431" transform="translate(375.86 119.146)" fill="#fff" stroke="#fff" stroke-width="0.5"/>
    <path id="パス_9586" data-name="パス 9586" d="M207.4,174.531c-4.335,2.13-8.641,4.323-13.01,6.377-9.21,4.331-15.335,2.457-19.987-6.741-3.186-6.294-5.709-12.937-8.256-19.528-.458-1.187.407-2.885.661-4.347,1.673.627,3.549.98,4.938,2,.7.513.339,2.3.779,3.387,2.479,6.087,4.621,12.371,7.726,18.129,2.9,5.371,6.011,6.032,11.733,3.715,3.4-1.376,6.647-3.109,9.932-4.741,2.477-1.231,4.148-.475,5.275,1.905.017-.016.209-.154.209-.154" transform="translate(138.153 125.029)" fill="#fff" stroke="#fff" stroke-width="0.5"/>
    <path id="パス_9587" data-name="パス 9587" d="M554.3,171.21l-3.679-4.752c1-.775,2.2-2.334,2.972-2.145a5.375,5.375,0,0,1,3.155,2.8c.277.625-1.13,1.993-2.448,4.1" transform="translate(458.217 136.681)" fill="#fff" stroke="#fff" stroke-width="0.5"/>
  </g>
</svg>
