<svg xmlns="http://www.w3.org/2000/svg" width="27.686" height="27.681" viewBox="0 0 27.686 27.681">
  <path id="insta_icon" d="M13.841,8.981a7.1,7.1,0,1,0,7.1,7.1A7.086,7.086,0,0,0,13.841,8.981Zm0,11.711a4.614,4.614,0,1,1,4.614-4.614A4.622,4.622,0,0,1,13.841,20.692Zm9.042-12a1.655,1.655,0,1,1-1.655-1.655A1.651,1.651,0,0,1,22.883,8.691Zm4.7,1.68a8.192,8.192,0,0,0-2.236-5.8,8.246,8.246,0,0,0-5.8-2.236c-2.285-.13-9.135-.13-11.42,0a8.234,8.234,0,0,0-5.8,2.23,8.219,8.219,0,0,0-2.236,5.8c-.13,2.285-.13,9.135,0,11.42a8.192,8.192,0,0,0,2.236,5.8,8.256,8.256,0,0,0,5.8,2.236c2.285.13,9.135.13,11.42,0a8.192,8.192,0,0,0,5.8-2.236,8.246,8.246,0,0,0,2.236-5.8c.13-2.285.13-9.129,0-11.414ZM24.631,24.237A4.671,4.671,0,0,1,22,26.868c-1.822.723-6.146.556-8.159.556s-6.343.161-8.159-.556a4.671,4.671,0,0,1-2.631-2.631c-.723-1.822-.556-6.146-.556-8.159s-.161-6.343.556-8.159A4.671,4.671,0,0,1,5.682,5.287c1.822-.723,6.146-.556,8.159-.556s6.343-.161,8.159.556a4.671,4.671,0,0,1,2.631,2.631c.723,1.822.556,6.146.556,8.159S25.354,22.421,24.631,24.237Z" transform="translate(0.005 -2.237)" fill="#6e2600"/>
</svg>
