<svg xmlns="http://www.w3.org/2000/svg" xmlns:xlink="http://www.w3.org/1999/xlink" width="421.151" height="207.916" viewBox="0 0 421.151 207.916">
  <defs>
    <clipPath id="clip-path">
      <rect id="長方形_1794" data-name="長方形 1794" width="421.151" height="207.915" fill="#fff"/>
    </clipPath>
  </defs>
  <g id="mv_catch_pc" transform="translate(0 0)">
    <g id="グループ_5145" data-name="グループ 5145" transform="translate(0 0)" clip-path="url(#clip-path)">
      <path id="パス_10125" data-name="パス 10125" d="M0,204.973c.189-.126.514-.221.549-.382.323-1.445.632-2.9.853-4.36.05-.321-.26-.7-.412-1.066A4.438,4.438,0,0,0,3.26,196a8.079,8.079,0,0,1,.816-2.014c.794-1.671,2.066-3.121,2.036-5.166-.007-.556.755-1.085,1.014-1.691.519-1.228.864-2.533,1.413-3.746a33.9,33.9,0,0,1,1.725-3.052c.085-.141.313-.226.345-.365.3-1.354.577-2.717.87-4.074a3.629,3.629,0,0,1,.328-1.155c.653-1.037,1.406-2.012,2.055-3.054a18.847,18.847,0,0,0,1.359-2.557c.7-1.658,1.25-3.379,1.995-5.016a17.857,17.857,0,0,1,1.478-2.04c.208-.323.239-.76.451-1.07.343-.688.69-1.376,1.024-2.068.059-.119.013-.313.093-.388,1.773-1.693,1.5-4.317,2.752-6.162a11.78,11.78,0,0,0,1.825-4.412c.069-.343.742-.564,1.246-.918a8.046,8.046,0,0,1,2.151-5.317c.677-.655.8-1.932,1.061-2.954a9.006,9.006,0,0,1,2.587-4.53c.063-.056.145-.117.163-.189a21.032,21.032,0,0,1,1.035-3.766c.423-.883,1.1-1.569.51-2.331,1.011-1.53,2.407-2.594,2.585-4.545a10.836,10.836,0,0,1,1.146-2.776c.037.046-.148-.178-.384-.462a3.4,3.4,0,0,0,1.5-3.2,6.564,6.564,0,0,1,.211-1.862c.3-1.441-.977-2.142-1.5-3.18-.653-1.291-1.6-2.435-2.355-3.681a5.163,5.163,0,0,1-.347-1.4l-1.059-.239a1.208,1.208,0,0,1-.13-.349c-.035-.679-.067-1.359-.069-2.036,0-2.188.662-2.967,2.843-3.021a13.933,13.933,0,0,0,4.929-1.443c1.159-.467,2.47-.525,3.583-1.324,1.194-.855,2.474-1.5,2.548-3.258a4.38,4.38,0,0,1,.664-2.316c.959-1.3.393-3.306,2.19-4.252.464-.245.441-1.43.625-2.19.306-1.272.527-2.574.922-3.818.319-1.007.862-1.94,1.265-2.921.391-.948.744-1.914,1.09-2.88.367-1.022.714-2.053,1.05-3.086a16.75,16.75,0,0,0,.6-2.125c.028-.15-.386-.38-.649-.623,1.619-.289,1.578-1.778,2.047-2.945.417-1.031.948-2.016,1.378-3.045a22.615,22.615,0,0,0,.753-2.188c.556-1.827,1.05-3.677,1.645-5.491.477-1.452,1.033-2.88,1.608-4.3.838-2.066,1.752-4.1,2.587-6.173.467-1.161.831-2.364,1.261-3.542a21.293,21.293,0,0,0,.972-3.019c.6-.43,1.767-.547.777-1.864-.13-.171.521-.855.69-1.346.4-1.148.727-2.324,1.152-3.714-2.021.124-3.581.241-5.144.31a19.128,19.128,0,0,0-2.472.028c-.473.085-.875.575-1.309.881l.221.369c-1.608.1-3.223.163-4.827.31a3.493,3.493,0,0,0-1.257.517c-.666.369-1.152,1.343-2.144.41-.171-.161-.914.273-1.387.449a15.706,15.706,0,0,0-3.494,1.65l1.882.234a18.68,18.68,0,0,1-2.324,2.474c-1.567,1.146-2.95,2.7-5.124,2.754-.137,0-.278.2-.4.326a45.8,45.8,0,0,0-4.1,4.43,3.725,3.725,0,0,0-.109,2.776,11.851,11.851,0,0,0,1.589,3.162c.254.389,1.087.4,1.348.784,1.847,2.756,4.378,4.86,6.667,7.193.716.729,1.339,1.547,2.116,2.453.269.79.64,1.84.981,2.9.247.766-.975,2.168-1.678,1.832-.734-.352-1.888-.3-1.988-1.571-.02-.254-.534-.432-.692-.716a26.819,26.819,0,0,0-5.4-6.285,42.809,42.809,0,0,1-4.037-3.807c-1.035-1.276-2.68-2.164-2.908-4.05a1.668,1.668,0,0,0-.53-.872c-1.949-1.9-2.014-4.306-1.877-6.774a.682.682,0,0,1,.128-.371c1.25-1.558,2.453-3.162,3.785-4.649a6.65,6.65,0,0,1,3.69-2.555c1.3-.271,2.372-1.587,3.572-2.4a4.377,4.377,0,0,1,1.107-.421A31.826,31.826,0,0,0,46.757,34.1c1.771-.8,3.449-1.8,5.237-2.548a23.21,23.21,0,0,1,3.4-.844,6.169,6.169,0,0,0,.846-.323,5.467,5.467,0,0,1,1.782-.695,3.762,3.762,0,0,0,3.4-1.511c.037.145.072.291.109.436a8.713,8.713,0,0,0,2.021-.469,8.677,8.677,0,0,1,4.508-1.252,2.589,2.589,0,0,0,2.461-.682c.293-.336,1.1-.284,1.676-.313.972-.043,1.541-.5,1.517-1.469-.054-2.177,1.139-3.933,1.884-5.841.061-.158.26-.278.28-.432a4.006,4.006,0,0,1,.977-2.733,1.758,1.758,0,0,0,.28-2.368c-.291-.38.521-1.619.857-2.453.141-.356.475-.666.517-1.02.243-2.116.365-4.245.658-6.353A23.563,23.563,0,0,1,80.109,0c.341.582.551.938.8,1.356,1.63-.616,2.3.779,3.332,1.591,1.081.853,2.088,1.628,1.782,3.136-.872.77-1.741,1.528-2.587,2.3a1.3,1.3,0,0,0-.289.553q-.82,2.585-1.617,5.179a2.233,2.233,0,0,0-.017.54c-.03,1.011.2,2.053-.749,2.878-.241.211-.1.864-.139,1.393H79.6c-.562,2.047-1.1,3.994-1.684,6.142a24.135,24.135,0,0,0,2.433-.015c1.378-.135,2.746-.4,4.122-.538a5.866,5.866,0,0,1,1.3.219c.781.1,1.571.143,2.344.28.794.139,1.576.356,2.359.547.375.091.788.354,1.118.271a6.958,6.958,0,0,1,3.655.36,16.134,16.134,0,0,1,4.041,2.086,22.162,22.162,0,0,1,3.184,2.55,15.134,15.134,0,0,1,1.561,2.086c1.343,1.812,2.743,3.592,2.782,6.023,0,.393.332.77.415,1.174a14.983,14.983,0,0,1,.241,1.921c.02.3-.208.666-.1.9.964,2.031-.447,3.748-.71,5.61-.065.464-.378.9-.4,1.361-.091,1.817-1.044,3.421-1.365,5.083-.36,1.864-1.888,2.9-2.27,4.675-.2.92-1.487,1.561-2.118,2.446a28.9,28.9,0,0,0-1.591,2.9,9.684,9.684,0,0,1-.668,1.044c-1.074,1.461-2.131,2.939-3.264,4.352-.256.317-.907.306-1.2.614-1.769,1.888-3.427,3.881-5.239,5.726-1.074,1.1-2.379,1.962-3.544,2.971-1.5,1.3-2.941,2.683-4.473,3.948-.577.477-1.415.636-2.014,1.094-1.348,1.037-2.574,2.238-3.944,3.245-.89.653-2.023.977-2.908,1.636-1.38,1.031-3.193,1.311-4.371,2.739-.521.632-1.706.712-2.238,1.341-.812.959-1.519,1.9-2.871,2.047-.082.009-.215.065-.23.122-.54,2.062-2.613,1.643-3.887,1.966C56.7,98.2,56.1,99.275,55,99.707c-.582.228-1.152.48-1.791.747-.013.169-.041.506-.067.844a2.106,2.106,0,0,0-.779-.184,11.566,11.566,0,0,1-1.528.336c-.369.158-.729.345-1.111.469-2.2.71-2.012,2.908-2.778,4.5a23.825,23.825,0,0,0-1.276,3.277,8.71,8.71,0,0,0-.569,2.913,5,5,0,0,0,1.027,2.01A15.21,15.21,0,0,0,48,117.387a6.961,6.961,0,0,0,2.045,1.083,27.382,27.382,0,0,0,2.433,3.47c1.2,1.257,2.78,2.162,3.913,3.464a42.069,42.069,0,0,0,3.607,3.1c.488.451,1.432.731,1.532,1.22.339,1.647,1.489,1.817,2.78,1.947a1.028,1.028,0,0,1,.6.273c1.795,1.906,4.586,2.6,6.019,4.94a1.1,1.1,0,0,0,.308.375c1.656,1.011,3.323,2,4.975,3.015,2.973,1.83,5.936,3.679,8.907,5.513a14.615,14.615,0,0,0,3.347,1.669c.074.464.148.929.254,1.589-1.511-.054-3.043-.022-4.549-.211-.562-.072-1.059-.664-1.821-1.174l-.673.286c-.933-1.836-3.783-1.37-4.219-3.219-.851-.367-1.463-.584-2.029-.89a15.442,15.442,0,0,1-2.954-1.743c-1.172-1.02-2.67-1.454-3.77-2.709a8.437,8.437,0,0,0-5.487-3.032c-.614-.063-1.161-.779-1.741-1.194-.682-.491-1.341-1.018-2.053-1.463-1.569-.983-3.243-1.775-4.28-3.481-.365-.6-1.361-.775-1.966-1.268a12.7,12.7,0,0,1-1.454-1.756,3.463,3.463,0,0,1-2.277-1.4,34.029,34.029,0,0,0-3.273-3.119c-1.3-1.209-2.594-2.42-4.122-3.844-.293.792-.54,1.45-.777,2.11-.061.169-.024.434-.132.51-1.53,1.074-1.126,2.93-1.778,4.354-.582,1.265-1.122,2.552-1.68,3.829-.48,1.094-1.016,2.168-1.419,3.29a8.939,8.939,0,0,0-.434,2.225,2.326,2.326,0,0,1-1.32,2.216c-.271.122-.46.577-.553.916-.358,1.283-.625,2.591-1.009,3.865a5.869,5.869,0,0,1-.779,1.185,13.905,13.905,0,0,0-1.478,2.574,27.259,27.259,0,0,0-.69,3.494c-.05.258-.124.658-.291.725-2.335.927-1.606,3.881-3.49,5.209-.619.436-.545,1.84-.816,2.8a1.569,1.569,0,0,1-.4.807,2.721,2.721,0,0,0-1.133,2.828c.033.213.013.564-.115.647-1.207.771-1.12,1.947-1.367,3.175-.224,1.107-1.426,2.016-2.4,2.835-.33,1.183-.662,2.368-.94,3.368a4.724,4.724,0,0,0-.875.842c-.406.675-.721,1.4-1.077,2.107-.076.148-.263.3-.247.423.323,2.594-1.567,4.606-1.847,7.1-.148,1.3-1.561,2.45-2.329,3.711a8.632,8.632,0,0,0-.462,1.506c-.38,1.022-.818,2.023-1.187,3.049a11.765,11.765,0,0,0-.428,1.647c-.217,1.027-.4,2.062-.614,3.088a.915.915,0,0,1-.3.569,1.8,1.8,0,0,0-.875,2.446c.163.521-.336,1.274-.6,1.895-.38.9-.814,1.78-1.228,2.667a11.117,11.117,0,0,1-3.863,4.836c-1.068.7-1.469-.376-2.12-.794-.319-.2-.662-.371-.994-.553v-1.361M51.376,95.153c2.1.065,3.056-1.96,4.84-1.515.015,0,.063-.067.072-.109.282-1.133,1.406-1.116,2.149-1.281a4.806,4.806,0,0,0,3.056-1.927c.124-.169.191-.449.352-.512,1.469-.584,3.015-1.014,4.419-1.723,1.155-.582,2.047-1.686,3.49-1.686.03,0,.067-.056.1-.091,2.225-2.887,5.465-4.493,8.3-6.613.5-.373.855-.942,1.333-1.356,1.192-1.029,2.4-2.04,3.631-3.019,1.166-.927,2.463-1.7,3.536-2.72,1.493-1.415,2.8-3.028,4.25-4.493.788-.8,1-2.1,2.4-2.42.534-.122.966-.948,1.326-1.528.7-1.129,1.235-2.359,1.975-3.455.716-1.061,1.992-1.893,2.322-3.03.484-1.665.77-3.3,1.936-4.71a17.345,17.345,0,0,0,1.654-3.128c.041-.215.122-.649.208-1.081.306-1.524.721-3.034.894-4.573a29.641,29.641,0,0,0,.1-4.584,5.3,5.3,0,0,0-.655-1.858c-.234-.506-.6-.951-.855-1.45-1.224-2.411-3.735-3.4-5.693-4.955-1.024-.812-2.8-.675-4.241-.968-.258-.052-.519-.1-.773-.176-.736-.213-1.459-.493-2.207-.642-1.146-.226-2.307-.389-3.466-.53a4.17,4.17,0,0,0-1.2.085,17.151,17.151,0,0,1-1.769.38c-1.982.132-3.967.2-6.292.31.54.61.794.9.925,1.042-.929.708-1.771,1.35-2.809,2.138.475,2.581-1.958,4.651-1.971,7.382,0,.126-.367.221-.51.38-.54.61-1.537,1.265-1.5,1.854.124,2.029-1.48,3.368-1.754,5.224-.2,1.387-.977,2.68-1.25,4.065A3.709,3.709,0,0,1,66.1,54.419a2.83,2.83,0,0,0-.868,1.317c-.3.81-.438,1.676-.7,2.5-.3.957-.658,1.893-.979,2.843-.313.92-.343,2.279-.975,2.665-.957.586-.831,1.3-.99,2.055-.052.26-.208.5-.273.757a11.409,11.409,0,0,0-.708,3.175,6.413,6.413,0,0,1-1.05,3.835c-1.007,1.686-2.229,3.273-2.607,5.3A25,25,0,0,1,56,81.921c-.831,2.576-1.654,5.155-2.507,7.724-.278.84-.632,1.656-.951,2.483-.362.935-.725,1.873-1.172,3.026" transform="translate(0 0.002)" fill="#fff"/>
      <path id="パス_10126" data-name="パス 10126" d="M207.867,70.545a8.675,8.675,0,0,0-2.014,1.343c-1.676,1.96-3.889,1.517-5.99,1.45-.454-.015-.846-.77-1.328-1.09-1.278-.844-1.157-2.311-1.359-3.488a13.6,13.6,0,0,1,.415-3.824c.054-.434.109-.866.165-1.315a5.257,5.257,0,0,0-4.336,2.212c-.219.286-.883.228-1.339.341a18.356,18.356,0,0,0-2.461.664c-.334.135-.521.638-.749.938-1.252.36-2.572.742-3.892,1.12-.043.013-.117-.011-.132.011-1,1.413-2.578,1.88-4.072,2.487-.23.093-.386.4-.614.451-1.226.293-2.461.562-3.7.8-1.472.276-2.943.579-4.43.716-.486.046-1.018-.4-1.526-.616-.805-.354-1.621-.688-2.409-1.077s-1.426-.766-1.391-1.895a1.909,1.909,0,0,0-2.934-1.541,23.1,23.1,0,0,0-2.531,1.734c-.2.145-.26.467-.137.914q-3.565,1.4-7.132,2.8l-.336-.423a6.623,6.623,0,0,1-.7,2.055,5.037,5.037,0,0,1-2.086,1.656,12.08,12.08,0,0,1-2.461.462,55.525,55.525,0,0,0-6.3,1.617c-.736.182-1.736.456-2.251.124-1.213-.781-3.117-.425-3.768-1.819-.89-1.912-2.793-3.249-2.381-5.995a60.353,60.353,0,0,1,1.079-6.168,16.592,16.592,0,0,1,2.255-4.369c.8-1.276,1.78-2.435,2.683-3.648-1.014-1.285-1.821-1.4-3.527-.519-.221.115-.517.3-.708.237-2.3-.753-4.488.862-6.646.412-1.875-.389-2.72,1.252-4.3,1.4.326,2.346-1.606,2.921-3.121,3.681-1.472.738-2.824,1.788-4.656,1.8a5.018,5.018,0,0,0-2.253,1.148,2.485,2.485,0,0,0-.64.955c-.445.859-.851,1.741-1.3,2.6a2.976,2.976,0,0,1-2.479,1.558c-.877.156-1.55,1.5-2.292,2.342-1.252,1.415-2.552,2.793-3.707,4.284-.994,1.283-1.782,2.724-2.726,4.048-.545.764-1.419,1.341-1.795,2.164-.781,1.7-1.289,3.529-1.992,5.272A3.4,3.4,0,0,1,96.434,90.1a1.075,1.075,0,0,1-1.752-.493c-.072-.169-.577-.2-.886-.213-.69-.028-1.78.265-2-.056a4.939,4.939,0,0,1-1.055-2.96,34.663,34.663,0,0,1,1.387-5.263c.2-.718.4-1.435.682-2.431-.211-.341-.788-1.042.551-1.346.126-.028.158-.462.239-.708A38.3,38.3,0,0,1,95.37,71.47,14.063,14.063,0,0,0,97.2,66.022c1.752-.773,3.842-4.221,3.633-6.149,1.86.28,1.32-1.556,2.042-2.329a7.148,7.148,0,0,0,.666-1.092,17.131,17.131,0,0,1,1.747-2.585c.5-.53,1.606-1.244,1.934-1.044,1.545.946,3.768,1.174,4.215,3.477a3.667,3.667,0,0,0,.3.831c-1.326,1.762-2.531,3.36-3.8,5.044,2.331,1.363,2.971-1.7,4.92-1.322-.378-1.86,1.244-2.01,2.277-2.661,1.673-1.053,3.358-2.105,5.113-3,1.4-.718,2.984-1.087,4.369-1.832a7.591,7.591,0,0,1,4.061-.9,1.718,1.718,0,0,0,1.016-.234c1.71-1.226,3.577-1.181,5.567-.994a43.734,43.734,0,0,0,4.844-.174c1.317-.028,2.635.054,3.952.056,1.693,0,3.384-.028,5.077-.039a2.4,2.4,0,0,1,2.344,2.355c.015.4.51.781.816,1.213-.033.623-.076,1.406-.111,2.09-1.7.981-3.7,1.313-5.055,2.861-1.163,1.322-2.446,2.542-3.586,3.883a4.422,4.422,0,0,0-.794,1.791c-.41,1.686-.375,1.7-1.814,2.2v6.4c.972-.358,1.912-.712,2.858-1.048a2.023,2.023,0,0,1,.886-.234c1.61.254,2.591-.8,3.668-1.68.23-.189.488-.512.721-.5,2.6.113,3.983-2.222,6.116-3.008,2.179-.8,3.6-2.9,5.663-3.616,2.144-.742,3.269-2.268,4.588-3.783.3-.345.907-.412,1.228-.747,1.254-1.291,1.55-3.069,2.244-4.645.126-.284.2-.593.336-.866.508-.992,1.035-1.973,1.558-2.956.093-.176.167-.419.321-.5,1.758-.938,4.712.823,4.749,2.806.009.493-.339,1.2.653,1.172a1.4,1.4,0,0,1,.1.627c-.135,1.029-.347,2.049-.432,3.08a1.848,1.848,0,0,0,.23.853c-.629.718-1.113,1.3-1.626,1.854-.4.428-.812.842-1.248,1.228-1.424,1.272-1.871,1.328-.649,2.98-.336.668-.792,1.172-.794,1.676,0,.682-.931,1.591.087,2,.523.213,1.324-.3,2.008-.443a14.962,14.962,0,0,0,3.462-.751c1.912-.948,4.178-.925,5.914-2.4a15.689,15.689,0,0,1,3.138-1.5c.616-.313,1.155-.777,1.752-1.131a2.1,2.1,0,0,1,.883-.306c.977,1.576,2.212.3,3.3.423l-.182-.43a10.246,10.246,0,0,1,1.591-1.053c1.291-.549,2.652-.935,3.926-1.519.354-.163.495-.788.736-1.2,2.175.336,3.234-2.327,3.748-4.454a6.1,6.1,0,0,0,3.362-3.994c.664-1.9,1.862-2.609,4.115-1.4,1.226.66,2.181,1.265,2,2.7-.08.623-.666,1.181-1.126,1.945l-1.094.176c.219.519.406.959.6,1.413-.284.556-.651,1.265-.92,1.788-.649.408-1.185.744-1.921,1.209a20.1,20.1,0,0,0-2.194,3.581,21.357,21.357,0,0,0-.77,4.271,28.411,28.411,0,0,1,2.947-1.189,3.489,3.489,0,0,1,1.845-.017,5.458,5.458,0,0,1,.111,2.62,28.116,28.116,0,0,1-1.563,3.648" transform="translate(106.192 55.944)" fill="#fff"/>
      <path id="パス_10127" data-name="パス 10127" d="M207.1,49.969c.621.048,1.241.106,1.862.135a6.98,6.98,0,0,1,1.083-.02c1.728.375,2.548-1.085,3.8-1.708,1.361-.679,1.584-2.079,2.589-2.934.664-.562.894-1.61,1.508-2.262a18.84,18.84,0,0,1,2.986-2.555c.306-.211.994.113,1.5.219a4.127,4.127,0,0,0,.972.267c1.417-.1,2.071.784,2.858,1.791.679.868,1.895,1.291,2.728,2.068,1.222,1.139,3.243,1.05,4.085,2.728a.348.348,0,0,0,.2.161c1.2.3,2.413.562,3.609.886a13.714,13.714,0,0,1,2.691.9c.306.158.365.859.48,1.326a10.4,10.4,0,0,1,.475,2.346,1.947,1.947,0,0,1-.668,1.439c-.519.362-1.561.779-1.849.538-1.634-1.367-3.6-1.281-5.474-1.426a43.763,43.763,0,0,1-5.986-.616c-1.356-.293-2.9.256-4.358.43a4.061,4.061,0,0,1-.532.072c-2.578-.03-4.154,1.48-5.48,3.464-1.113,1.669-2.377,3.238-3.484,4.914-.938,1.424-1.743,2.937-2.709,4.58A3.366,3.366,0,0,0,207.337,69a19.811,19.811,0,0,1-1.591,2.624,11.134,11.134,0,0,0-.577,2.173c-.4.653-.881,1.5-1.422,2.3-.918,1.367-1.971,2.657-2.772,4.087a5.744,5.744,0,0,0-.213,2.205,9,9,0,0,0,1.762-.356c1.387-.573,2.748-1.218,4.089-1.886a8.938,8.938,0,0,0,1.191-.912,2.32,2.32,0,0,1,.651-.362,61.185,61.185,0,0,0,6.114-1.927c1.085-.464,1.84.488,2.763.139.087.256.3.705.243.74-.836.536-1.728.985-2.561,1.524-.723.464-1.385,1.022-2.084,1.526a4.04,4.04,0,0,1-1.3.836,2.272,2.272,0,0,0-1.754,1.524c-.3.7-.664,1.383-1.7,1.291a2.28,2.28,0,0,0-1.272.564,17.291,17.291,0,0,0-1.426,1.235c.176.23.432.562.688.894-.436.256-.885.5-1.309.777a4.173,4.173,0,0,0-1.224.925c-.527.77-2.743,2.3-3.447,2.212-.38,2.068-1.634,2.609-3.473,1.513-.213-.128-.6-.321-.69-.241-1.12,1.007-2.218.243-3.295-.035-.425-.111-1.024-.4-1.135-.74-.747-2.307-1.053-4.645.143-6.926a7.774,7.774,0,0,0,1.231-3.5c.022-.851.8-1.671,1.181-2.526.265-.59.352-1.268.668-1.821,1.027-1.78,2.3-3.44,3.151-5.3,1.432-3.138,3.859-5.654,5.252-8.805a6.336,6.336,0,0,1,1.626-2.092A3.732,3.732,0,0,0,206,58.649c.336-1.144,1.387-2.079,2.166-3.156-.356-.4-.718-1.137-1.508-.189-.184.224-.653.254-1,.291-2.11.226-4.224.425-6.333.64-.846.087-1.691.193-2.537.289l.115.345c-.54.239-1.092.458-1.619.723-.339.169-.638.415-.97.6a2.093,2.093,0,0,1-.879.408c-1.17,0-2.338-.115-3.507-.143a3.432,3.432,0,0,0-2.55.7c-.606.486-2.036.293-2.937-.037a2.394,2.394,0,0,0-2.251.273c-2.238,1.61-4.7,1.619-7.277,1.541a8.327,8.327,0,0,0-2.793.942c-.2.072-.356.278-.547.3-2.937.391-5.96.469-8.786,1.252-1.63.454-2.98-.206-4.467-.132-.87.046-1.858-.829-2.661-1.461a5.184,5.184,0,0,1-.933-1.6l-.4.458a4.75,4.75,0,0,0,.169-1.261c-.182-1.387.417-1.717,1.745-1.812,1.951-.139,3.876-.64,5.819-.959.842-.137,1.7-.18,2.539-.313a10.517,10.517,0,0,1,3.093-.486,9.924,9.924,0,0,0,3.722-.356c2.17-.436,4.341-.894,6.531-1.233,1.437-.224,2.906-.221,4.358-.371a55.345,55.345,0,0,0,7.807-.948c1.875-.471,3.72-.8,5.619-1.092,1.867-.291,3.766-.53,5.626-.953,1.5-.343,3.043-.519,4.56-.8a9.668,9.668,0,0,0,1.2-.384l-.026.237" transform="translate(180.63 47.467)" fill="#fff"/>
      <path id="パス_10128" data-name="パス 10128" d="M70.8,90.414c.052,1.5-1,1.1-1.736,1.04-1.608-.141-3.195-.36-4.7.5a1.486,1.486,0,0,1-.931.03,17.477,17.477,0,0,1-2.1-.549c-.829-.284-2.11.189-2.2-1.435-.022-.408-.879-.762-1.335-1.159-.323-.282-.619-.6-1.118-1.09-1.289-.167-1.91-1.565-2.576-2.691-.751-1.274-.912-2.9-1.682-4.165a8.406,8.406,0,0,1-1.3-4.664,15.177,15.177,0,0,1,.471-2.722,16.709,16.709,0,0,1,.621-2.637C53,68.8,53.9,66.761,54.725,64.7a7.319,7.319,0,0,0,.3-1.35,3.6,3.6,0,0,0,1.048-.323c.927-.675.336-1.335-.254-2.075.486-.143.935-.145,1.181-.371a9.1,9.1,0,0,0,1.43-1.678,17.572,17.572,0,0,0,.922-1.869,8.222,8.222,0,0,0,.916-1.847,2.152,2.152,0,0,1,.959-1.725c.61-.4.747-1.45,1.283-2.04,1.211-1.333,2.253-.054,3.3.4.477.208.816.721,1.285.964a1.3,1.3,0,0,0,.927-.1c1.033-.421,1.873-1.3,3.164-1.118.349.048.777-.434,1.163-.677.252-.158.495-.458.749-.467,1.908-.065,3.566-1.979,5.658-.747a2.374,2.374,0,0,0,1.311.265,6.307,6.307,0,0,1,4.7,1.443c.6.51,1.087,1.257,1.775,1.543,1.521.634,1.888,2.136,2.4,3.316s.306,2.724.328,4.111c.017,1.1-.3,2.179-.341,3.3-.03.944-1.053,2-1.882,2.73-.981.868-2.52,1.209-3.29,2.192-1.341,1.712-3.39,2.192-5,3.395-.855.638-2.255.5-3.355.868-.519.174-.916.718-1.647,1.33a6.24,6.24,0,0,0-3.824,1.413A5.06,5.06,0,0,1,68.72,76a10.291,10.291,0,0,1-1.278.486,3.829,3.829,0,0,1-1.513.117,3.8,3.8,0,0,0-2.1-.059c-.662.2-1.587-.343-2.364-.638-.829-.313-1.786-.482-1.982-1.645-.046-.269-.584-.7-.775-.642a1.7,1.7,0,0,0-.883.8,11.41,11.41,0,0,0-.82,1.958,2.932,2.932,0,0,0-.254,1.534c.467,1.576,1.057,3.117,1.643,4.653A14.621,14.621,0,0,0,59.5,85.012a3.656,3.656,0,0,0,2.659,1.951,22.655,22.655,0,0,0,2.259.512c2.4.063,4.818.959,7.219-.241a2.62,2.62,0,0,1,2.138,0,1.907,1.907,0,0,1,.575,1.788,5.644,5.644,0,0,1-2.118,1.589c-.317.165-.862-.1-1.439-.2m-.076-30.4-.436-.117c-.864.629-1.712,1.281-2.6,1.869-.154.1-.508-.007-.727-.111-1.4-.668-2.266-.46-2.947.855-.519,1-.922,2.058-1.354,3.041-.041-.048-.165-.2-.317-.371-1.291,5.222-.775,4.545.469,4.938-.091.619-.176,1.187-.26,1.756a13.707,13.707,0,0,0,2.24.148,10,10,0,0,0,1.819-.558,16.523,16.523,0,0,0,3.071-.931c1.309-.7,2.448-1.708,3.711-2.5,1.181-.747,2.422-1.4,3.651-2.071a16.855,16.855,0,0,0,2.144-1.094c.948-.716,1.736-1.641,2.672-2.377,2.06-1.621,3.44-3.47,2.574-6.042a11.8,11.8,0,0,1-1.988-.6c-.521-.265-.888-.859-1.417-1.07-.328-.13-.831.2-1.261.3-.169.037-.36-.03-.536-.007-.219.028-.543.03-.632.167-.8,1.213-2.129,1.324-3.319,1.808-.794.321-2.659.31-1.58,2.175.046.076-.043.239-.087.358-.625,1.758-1.391,2.112-3.01,1.613.046-.428.085-.8.124-1.168" transform="translate(59.826 57.653)" fill="#fff"/>
      <path id="パス_10129" data-name="パス 10129" d="M93.328,82.655c.085-1.513.614-2.175,1.982-2.075,1.975.143,3.444-.938,4.925-1.877,1.61-1.022,2.626-.972,3.82.723-1.5.2-2.307,1.213-3.08,2.359-.33.491-1.081.69-1.626,1.042A54.865,54.865,0,0,1,94.3,86.065c-1.263.634-2.8.705-4.15,1.189A31.88,31.88,0,0,0,86.9,88.817a28.108,28.108,0,0,1-3.2.46c-2.266.082-4.54.126-6.8-.011-.484-.03-.909-.9-1.378-1.37A12.078,12.078,0,0,1,72.1,82.829c-.269-.942.139-2.084.256-3.132.054-.482.161-.959.221-1.441a17.473,17.473,0,0,1,2.411-6.509c1.241-2.157,2.657-4.215,4.039-6.288.273-.41.777-.658,1.111-1.037A32.516,32.516,0,0,1,82.654,61.5c1.322-1.183,2.8-2.183,4.219-3.264.536-.408,1.252-.712,1.569-1.252a12.179,12.179,0,0,1,3.622-3.507c.857-.627,1.782-1.161,2.622-1.81a22.984,22.984,0,0,0,2.055-1.847,1.622,1.622,0,0,1,2.279-.434c1.966.905,3.375,2.526,5.276,3.44.213.1.488.549.423.675-.471.9-.836,2.214-1.589,2.522a4.139,4.139,0,0,1-3.69-.208A7.216,7.216,0,0,1,94.389,58.7,2.34,2.34,0,0,1,92.382,60.5c-1.168.26-2.081,1.684-3.093,2.609-.082.074-.02.328-.1.378-1.328.831-2.667,1.641-3.892,2.387-.445.981-.816,1.977-1.333,2.891a31.209,31.209,0,0,0-2.6,4.443,2.96,2.96,0,0,1-1.7,1.945,2.181,2.181,0,0,0-.886,1.521c-.271,2.11-.458,4.234-.553,6.359a1.759,1.759,0,0,0,.786,1.289,3.9,3.9,0,0,0,4.376-.1c.428-.276,1.033-.736,1.372-.61.87.326,1.485-.28,2.186-.321,1.973-.117,3.818-1.539,5.888-.6.106.048.265-.022.493-.046" transform="translate(84.284 57.475)" fill="#fff"/>
      <path id="パス_10130" data-name="パス 10130" d="M158.572,43.258c.15.117.3.234.551.434a19.176,19.176,0,0,0-2.166,1.725c-.362.375-.415,1.033-.7,1.508-.184.31-.577.491-.81.784-.49.616-.966,1.252-1.4,1.912-.823,1.259-1.615,2.539-2.4,3.818a1.185,1.185,0,0,0-.26.7,33.449,33.449,0,0,0,.744,3.269A1.169,1.169,0,0,1,151.195,59a27.928,27.928,0,0,1-3.273.521,26.919,26.919,0,0,1-.184-3.169c.087-1.409-.4-2.819.167-4.234.43-1.072.627-2.236.983-3.338.406-1.252.844-2.5,1.326-3.72.5-1.287,1.1-2.539,1.613-3.822.553-1.383.964-2.83,1.621-4.158.419-.84,1.072-1.949,1.814-2.127a1.943,1.943,0,0,1,2.568.983c.369.838,1.752,1.337,2.774,1.747a3.357,3.357,0,0,1,1.808,2.424c.241.875-.478,2.025-.838,3.034-.037.1-.488.1-.742.082-.71-.052-1.419-.141-2.129-.215l-.13.254" transform="translate(172.781 40.744)" fill="#fff"/>
    </g>
  </g>
</svg>
